# xmcd
#
# Track frame offsets:
#	150
#	16621
#	44049
#	59323
#	82863
#	104389
#	120424
#	143492
#	162648
#
# Disc length: 2412 seconds
#
# Revision: 27
# Processed by: cddbd v1.5.2PL0 Copyright (c) Steve Scherf et al.
# Submitted via: Jack! The Knife 20 Magnifico
#
DISCID=6a096a09
DTITLE=AC-DC - Powerage
DYEAR=1978
DGENRE=Hard Rock
TTITLE0=Rock 'N' Roll Damnation
TTITLE1=Down Payment Blues
TTITLE2=Gimme A Bullet
TTITLE3=Riff Raff
TTITLE4=Sin City
TTITLE5=What's Next To The Moon
TTITLE6=Gone Shootin'
TTITLE7=Up To My Neck In You
TTITLE8=Kicked In The Teeth
EXTD=Harry Vanda and George Young
EXTT0=Young, Scott, Young
EXTT1=Young, Scott, Young
EXTT2=Young, Scott, Young
EXTT3=Young, Scott, Young
EXTT4=Young, Scott, Young
EXTT5=Young, Scott, Young
EXTT6=Young, Scott, Young
EXTT7=Young, Scott, Young
EXTT8=Young, Scott, Young
PLAYORDER=
